<svg xmlns="http://www.w3.org/2000/svg" viewBox="0 0 1600 900" preserveAspectRatio="xMidYMax slice"><defs><linearGradient id="s" x1="0" y1="0" x2="0" y2="1"><stop offset="0" stop-color="#b3b8ee"/><stop offset=".6" stop-color="#d8c6ec"/><stop offset="1" stop-color="#f1c4d6"/></linearGradient></defs><rect width="1600" height="900" fill="url(#s)"/><rect x="-20" y="403" width="101" height="237" fill="#c4bbe8"/><rect x="97" y="443" width="66" height="197" fill="#c4bbe8"/><rect x="193" y="432" width="128" height="208" fill="#c4bbe8"/><rect x="336" y="451" width="134" height="189" fill="#c4bbe8"/><rect x="490" y="461" width="87" height="179" fill="#c4bbe8"/><rect x="583" y="266" width="115" height="374" fill="#c4bbe8"/><rect x="704" y="434" width="90" height="206" fill="#c4bbe8"/><rect x="815" y="450" width="114" height="190" fill="#c4bbe8"/><rect x="959" y="417" width="132" height="223" fill="#c4bbe8"/><rect x="1102" y="449" width="140" height="191" fill="#c4bbe8"/><rect x="1264" y="277" width="134" height="363" fill="#c4bbe8"/><rect x="1403" y="457" width="88" height="183" fill="#c4bbe8"/><rect x="1512" y="332" width="77" height="308" fill="#c4bbe8"/><rect x="-20" y="442" width="88" height="258" fill="#a89bd8"/><rect x="-10" y="460" width="10" height="12" fill="#e7e0ff" opacity="0.55"/><rect x="12" y="460" width="10" height="12" fill="#e7e0ff" opacity="0.55"/><rect x="-10" y="486" width="10" height="12" fill="#e7e0ff" opacity="0.55"/><rect x="12" y="486" width="10" height="12" fill="#e7e0ff" opacity="0.55"/><rect x="34" y="486" width="10" height="12" fill="#e7e0ff" opacity="0.55"/><rect x="-10" y="512" width="10" height="12" fill="#e7e0ff" opacity="0.55"/><rect x="12" y="512" width="10" height="12" fill="#e7e0ff" opacity="0.55"/><rect x="34" y="512" width="10" height="12" fill="#e7e0ff" opacity="0.55"/><rect x="-10" y="538" width="10" height="12" fill="#e7e0ff" opacity="0.55"/><rect x="12" y="538" width="10" height="12" fill="#e7e0ff" opacity="0.55"/><rect x="34" y="538" width="10" height="12" fill="#e7e0ff" opacity="0.55"/><rect x="-10" y="564" width="10" height="12" fill="#e7e0ff" opacity="0.55"/><rect x="12" y="564" width="10" height="12" fill="#e7e0ff" opacity="0.55"/><rect x="34" y="564" width="10" height="12" fill="#e7e0ff" opacity="0.55"/><rect x="-10" y="590" width="10" height="12" fill="#e7e0ff" opacity="0.55"/><rect x="12" y="590" width="10" height="12" fill="#e7e0ff" opacity="0.55"/><rect x="-10" y="616" width="10" height="12" fill="#e7e0ff" opacity="0.55"/><rect x="12" y="616" width="10" height="12" fill="#e7e0ff" opacity="0.55"/><rect x="34" y="616" width="10" height="12" fill="#e7e0ff" opacity="0.55"/><rect x="-10" y="642" width="10" height="12" fill="#e7e0ff" opacity="0.55"/><rect x="-10" y="668" width="10" height="12" fill="#e7e0ff" opacity="0.55"/><rect x="34" y="668" width="10" height="12" fill="#e7e0ff" opacity="0.55"/><rect x="85" y="387" width="91" height="313" fill="#a89bd8"/><rect x="95" y="405" width="10" height="12" fill="#e7e0ff" opacity="0.55"/><rect x="139" y="405" width="10" height="12" fill="#e7e0ff" opacity="0.55"/><rect x="117" y="431" width="10" height="12" fill="#e7e0ff" opacity="0.55"/><rect x="139" y="431" width="10" height="12" fill="#e7e0ff" opacity="0.55"/><rect x="139" y="457" width="10" height="12" fill="#e7e0ff" opacity="0.55"/><rect x="95" y="483" width="10" height="12" fill="#e7e0ff" opacity="0.55"/><rect x="117" y="483" width="10" height="12" fill="#e7e0ff" opacity="0.55"/><rect x="95" y="509" width="10" height="12" fill="#e7e0ff" opacity="0.55"/><rect x="117" y="509" width="10" height="12" fill="#e7e0ff" opacity="0.55"/><rect x="139" y="509" width="10" height="12" fill="#e7e0ff" opacity="0.55"/><rect x="95" y="535" width="10" height="12" fill="#e7e0ff" opacity="0.55"/><rect x="117" y="535" width="10" height="12" fill="#e7e0ff" opacity="0.55"/><rect x="95" y="561" width="10" height="12" fill="#e7e0ff" opacity="0.55"/><rect x="117" y="561" width="10" height="12" fill="#e7e0ff" opacity="0.55"/><rect x="139" y="561" width="10" height="12" fill="#e7e0ff" opacity="0.55"/><rect x="95" y="587" width="10" height="12" fill="#e7e0ff" opacity="0.55"/><rect x="95" y="613" width="10" height="12" fill="#e7e0ff" opacity="0.55"/><rect x="139" y="613" width="10" height="12" fill="#e7e0ff" opacity="0.55"/><rect x="95" y="639" width="10" height="12" fill="#e7e0ff" opacity="0.55"/><rect x="117" y="639" width="10" height="12" fill="#e7e0ff" opacity="0.55"/><rect x="139" y="639" width="10" height="12" fill="#e7e0ff" opacity="0.55"/><rect x="95" y="665" width="10" height="12" fill="#e7e0ff" opacity="0.55"/><rect x="139" y="665" width="10" height="12" fill="#e7e0ff" opacity="0.55"/><rect x="195" y="538" width="80" height="162" fill="#a89bd8"/><rect x="205" y="556" width="10" height="12" fill="#e7e0ff" opacity="0.55"/><rect x="227" y="556" width="10" height="12" fill="#e7e0ff" opacity="0.55"/><rect x="249" y="582" width="10" height="12" fill="#e7e0ff" opacity="0.55"/><rect x="205" y="608" width="10" height="12" fill="#e7e0ff" opacity="0.55"/><rect x="227" y="608" width="10" height="12" fill="#e7e0ff" opacity="0.55"/><rect x="227" y="634" width="10" height="12" fill="#e7e0ff" opacity="0.55"/><rect x="249" y="634" width="10" height="12" fill="#e7e0ff" opacity="0.55"/><rect x="205" y="660" width="10" height="12" fill="#e7e0ff" opacity="0.55"/><rect x="227" y="660" width="10" height="12" fill="#e7e0ff" opacity="0.55"/><rect x="249" y="660" width="10" height="12" fill="#e7e0ff" opacity="0.55"/><rect x="297" y="513" width="93" height="187" fill="#a89bd8"/><rect x="307" y="531" width="10" height="12" fill="#e7e0ff" opacity="0.55"/><rect x="329" y="531" width="10" height="12" fill="#e7e0ff" opacity="0.55"/><rect x="351" y="531" width="10" height="12" fill="#e7e0ff" opacity="0.55"/><rect x="373" y="531" width="10" height="12" fill="#e7e0ff" opacity="0.55"/><rect x="307" y="557" width="10" height="12" fill="#e7e0ff" opacity="0.55"/><rect x="329" y="557" width="10" height="12" fill="#e7e0ff" opacity="0.55"/><rect x="307" y="583" width="10" height="12" fill="#e7e0ff" opacity="0.55"/><rect x="351" y="583" width="10" height="12" fill="#e7e0ff" opacity="0.55"/><rect x="329" y="609" width="10" height="12" fill="#e7e0ff" opacity="0.55"/><rect x="351" y="609" width="10" height="12" fill="#e7e0ff" opacity="0.55"/><rect x="373" y="609" width="10" height="12" fill="#e7e0ff" opacity="0.55"/><rect x="307" y="635" width="10" height="12" fill="#e7e0ff" opacity="0.55"/><rect x="329" y="635" width="10" height="12" fill="#e7e0ff" opacity="0.55"/><rect x="351" y="635" width="10" height="12" fill="#e7e0ff" opacity="0.55"/><rect x="373" y="635" width="10" height="12" fill="#e7e0ff" opacity="0.55"/><rect x="329" y="661" width="10" height="12" fill="#e7e0ff" opacity="0.55"/><rect x="351" y="661" width="10" height="12" fill="#e7e0ff" opacity="0.55"/><rect x="373" y="661" width="10" height="12" fill="#e7e0ff" opacity="0.55"/><rect x="397" y="435" width="70" height="265" fill="#a89bd8"/><rect x="407" y="453" width="10" height="12" fill="#e7e0ff" opacity="0.55"/><rect x="429" y="453" width="10" height="12" fill="#e7e0ff" opacity="0.55"/><rect x="407" y="479" width="10" height="12" fill="#e7e0ff" opacity="0.55"/><rect x="429" y="479" width="10" height="12" fill="#e7e0ff" opacity="0.55"/><rect x="429" y="505" width="10" height="12" fill="#e7e0ff" opacity="0.55"/><rect x="407" y="531" width="10" height="12" fill="#e7e0ff" opacity="0.55"/><rect x="429" y="531" width="10" height="12" fill="#e7e0ff" opacity="0.55"/><rect x="407" y="557" width="10" height="12" fill="#e7e0ff" opacity="0.55"/><rect x="429" y="557" width="10" height="12" fill="#e7e0ff" opacity="0.55"/><rect x="407" y="583" width="10" height="12" fill="#e7e0ff" opacity="0.55"/><rect x="429" y="609" width="10" height="12" fill="#e7e0ff" opacity="0.55"/><rect x="407" y="635" width="10" height="12" fill="#e7e0ff" opacity="0.55"/><rect x="429" y="635" width="10" height="12" fill="#e7e0ff" opacity="0.55"/><rect x="407" y="661" width="10" height="12" fill="#e7e0ff" opacity="0.55"/><rect x="429" y="661" width="10" height="12" fill="#e7e0ff" opacity="0.55"/><rect x="479" y="368" width="131" height="332" fill="#a89bd8"/><rect x="489" y="386" width="10" height="12" fill="#e7e0ff" opacity="0.55"/><rect x="511" y="386" width="10" height="12" fill="#e7e0ff" opacity="0.55"/><rect x="533" y="386" width="10" height="12" fill="#e7e0ff" opacity="0.55"/><rect x="577" y="386" width="10" height="12" fill="#e7e0ff" opacity="0.55"/><rect x="489" y="412" width="10" height="12" fill="#e7e0ff" opacity="0.55"/><rect x="555" y="412" width="10" height="12" fill="#e7e0ff" opacity="0.55"/><rect x="577" y="412" width="10" height="12" fill="#e7e0ff" opacity="0.55"/><rect x="489" y="438" width="10" height="12" fill="#e7e0ff" opacity="0.55"/><rect x="533" y="438" width="10" height="12" fill="#e7e0ff" opacity="0.55"/><rect x="577" y="438" width="10" height="12" fill="#e7e0ff" opacity="0.55"/><rect x="489" y="464" width="10" height="12" fill="#e7e0ff" opacity="0.55"/><rect x="511" y="464" width="10" height="12" fill="#e7e0ff" opacity="0.55"/><rect x="533" y="464" width="10" height="12" fill="#e7e0ff" opacity="0.55"/><rect x="555" y="464" width="10" height="12" fill="#e7e0ff" opacity="0.55"/><rect x="577" y="464" width="10" height="12" fill="#e7e0ff" opacity="0.55"/><rect x="533" y="490" width="10" height="12" fill="#e7e0ff" opacity="0.55"/><rect x="555" y="490" width="10" height="12" fill="#e7e0ff" opacity="0.55"/><rect x="577" y="490" width="10" height="12" fill="#e7e0ff" opacity="0.55"/><rect x="511" y="516" width="10" height="12" fill="#e7e0ff" opacity="0.55"/><rect x="533" y="516" width="10" height="12" fill="#e7e0ff" opacity="0.55"/><rect x="511" y="542" width="10" height="12" fill="#e7e0ff" opacity="0.55"/><rect x="533" y="542" width="10" height="12" fill="#e7e0ff" opacity="0.55"/><rect x="555" y="542" width="10" height="12" fill="#e7e0ff" opacity="0.55"/><rect x="577" y="542" width="10" height="12" fill="#e7e0ff" opacity="0.55"/><rect x="533" y="568" width="10" height="12" fill="#e7e0ff" opacity="0.55"/><rect x="577" y="568" width="10" height="12" fill="#e7e0ff" opacity="0.55"/><rect x="489" y="594" width="10" height="12" fill="#e7e0ff" opacity="0.55"/><rect x="511" y="594" width="10" height="12" fill="#e7e0ff" opacity="0.55"/><rect x="533" y="594" width="10" height="12" fill="#e7e0ff" opacity="0.55"/><rect x="555" y="594" width="10" height="12" fill="#e7e0ff" opacity="0.55"/><rect x="489" y="620" width="10" height="12" fill="#e7e0ff" opacity="0.55"/><rect x="511" y="620" width="10" height="12" fill="#e7e0ff" opacity="0.55"/><rect x="555" y="620" width="10" height="12" fill="#e7e0ff" opacity="0.55"/><rect x="577" y="620" width="10" height="12" fill="#e7e0ff" opacity="0.55"/><rect x="511" y="646" width="10" height="12" fill="#e7e0ff" opacity="0.55"/><rect x="533" y="646" width="10" height="12" fill="#e7e0ff" opacity="0.55"/><rect x="577" y="646" width="10" height="12" fill="#e7e0ff" opacity="0.55"/><rect x="511" y="672" width="10" height="12" fill="#e7e0ff" opacity="0.55"/><rect x="533" y="672" width="10" height="12" fill="#e7e0ff" opacity="0.55"/><rect x="555" y="672" width="10" height="12" fill="#e7e0ff" opacity="0.55"/><rect x="637" y="462" width="120" height="238" fill="#a89bd8"/><rect x="647" y="480" width="10" height="12" fill="#e7e0ff" opacity="0.55"/><rect x="713" y="480" width="10" height="12" fill="#e7e0ff" opacity="0.55"/><rect x="735" y="480" width="10" height="12" fill="#e7e0ff" opacity="0.55"/><rect x="647" y="506" width="10" height="12" fill="#e7e0ff" opacity="0.55"/><rect x="713" y="506" width="10" height="12" fill="#e7e0ff" opacity="0.55"/><rect x="669" y="532" width="10" height="12" fill="#e7e0ff" opacity="0.55"/><rect x="691" y="532" width="10" height="12" fill="#e7e0ff" opacity="0.55"/><rect x="713" y="532" width="10" height="12" fill="#e7e0ff" opacity="0.55"/><rect x="735" y="532" width="10" height="12" fill="#e7e0ff" opacity="0.55"/><rect x="647" y="558" width="10" height="12" fill="#e7e0ff" opacity="0.55"/><rect x="691" y="558" width="10" height="12" fill="#e7e0ff" opacity="0.55"/><rect x="713" y="558" width="10" height="12" fill="#e7e0ff" opacity="0.55"/><rect x="647" y="584" width="10" height="12" fill="#e7e0ff" opacity="0.55"/><rect x="713" y="584" width="10" height="12" fill="#e7e0ff" opacity="0.55"/><rect x="735" y="584" width="10" height="12" fill="#e7e0ff" opacity="0.55"/><rect x="647" y="610" width="10" height="12" fill="#e7e0ff" opacity="0.55"/><rect x="669" y="610" width="10" height="12" fill="#e7e0ff" opacity="0.55"/><rect x="691" y="610" width="10" height="12" fill="#e7e0ff" opacity="0.55"/><rect x="713" y="610" width="10" height="12" fill="#e7e0ff" opacity="0.55"/><rect x="735" y="610" width="10" height="12" fill="#e7e0ff" opacity="0.55"/><rect x="647" y="636" width="10" height="12" fill="#e7e0ff" opacity="0.55"/><rect x="691" y="636" width="10" height="12" fill="#e7e0ff" opacity="0.55"/><rect x="713" y="636" width="10" height="12" fill="#e7e0ff" opacity="0.55"/><rect x="735" y="636" width="10" height="12" fill="#e7e0ff" opacity="0.55"/><rect x="669" y="662" width="10" height="12" fill="#e7e0ff" opacity="0.55"/><rect x="713" y="662" width="10" height="12" fill="#e7e0ff" opacity="0.55"/><rect x="735" y="662" width="10" height="12" fill="#e7e0ff" opacity="0.55"/><rect x="777" y="576" width="135" height="124" fill="#a89bd8"/><rect x="831" y="594" width="10" height="12" fill="#e7e0ff" opacity="0.55"/><rect x="875" y="594" width="10" height="12" fill="#e7e0ff" opacity="0.55"/><rect x="787" y="620" width="10" height="12" fill="#e7e0ff" opacity="0.55"/><rect x="809" y="620" width="10" height="12" fill="#e7e0ff" opacity="0.55"/><rect x="831" y="620" width="10" height="12" fill="#e7e0ff" opacity="0.55"/><rect x="853" y="620" width="10" height="12" fill="#e7e0ff" opacity="0.55"/><rect x="875" y="620" width="10" height="12" fill="#e7e0ff" opacity="0.55"/><rect x="787" y="646" width="10" height="12" fill="#e7e0ff" opacity="0.55"/><rect x="809" y="646" width="10" height="12" fill="#e7e0ff" opacity="0.55"/><rect x="875" y="646" width="10" height="12" fill="#e7e0ff" opacity="0.55"/><rect x="787" y="672" width="10" height="12" fill="#e7e0ff" opacity="0.55"/><rect x="809" y="672" width="10" height="12" fill="#e7e0ff" opacity="0.55"/><rect x="831" y="672" width="10" height="12" fill="#e7e0ff" opacity="0.55"/><rect x="853" y="672" width="10" height="12" fill="#e7e0ff" opacity="0.55"/><rect x="875" y="672" width="10" height="12" fill="#e7e0ff" opacity="0.55"/><rect x="918" y="497" width="126" height="203" fill="#a89bd8"/><rect x="928" y="515" width="10" height="12" fill="#e7e0ff" opacity="0.55"/><rect x="950" y="515" width="10" height="12" fill="#e7e0ff" opacity="0.55"/><rect x="972" y="515" width="10" height="12" fill="#e7e0ff" opacity="0.55"/><rect x="994" y="515" width="10" height="12" fill="#e7e0ff" opacity="0.55"/><rect x="1016" y="515" width="10" height="12" fill="#e7e0ff" opacity="0.55"/><rect x="928" y="541" width="10" height="12" fill="#e7e0ff" opacity="0.55"/><rect x="950" y="541" width="10" height="12" fill="#e7e0ff" opacity="0.55"/><rect x="994" y="541" width="10" height="12" fill="#e7e0ff" opacity="0.55"/><rect x="950" y="567" width="10" height="12" fill="#e7e0ff" opacity="0.55"/><rect x="972" y="567" width="10" height="12" fill="#e7e0ff" opacity="0.55"/><rect x="928" y="593" width="10" height="12" fill="#e7e0ff" opacity="0.55"/><rect x="950" y="593" width="10" height="12" fill="#e7e0ff" opacity="0.55"/><rect x="972" y="593" width="10" height="12" fill="#e7e0ff" opacity="0.55"/><rect x="994" y="593" width="10" height="12" fill="#e7e0ff" opacity="0.55"/><rect x="1016" y="593" width="10" height="12" fill="#e7e0ff" opacity="0.55"/><rect x="928" y="619" width="10" height="12" fill="#e7e0ff" opacity="0.55"/><rect x="950" y="619" width="10" height="12" fill="#e7e0ff" opacity="0.55"/><rect x="1016" y="619" width="10" height="12" fill="#e7e0ff" opacity="0.55"/><rect x="950" y="645" width="10" height="12" fill="#e7e0ff" opacity="0.55"/><rect x="972" y="645" width="10" height="12" fill="#e7e0ff" opacity="0.55"/><rect x="928" y="671" width="10" height="12" fill="#e7e0ff" opacity="0.55"/><rect x="972" y="671" width="10" height="12" fill="#e7e0ff" opacity="0.55"/><rect x="994" y="671" width="10" height="12" fill="#e7e0ff" opacity="0.55"/><rect x="1074" y="539" width="98" height="161" fill="#a89bd8"/><rect x="1128" y="557" width="10" height="12" fill="#e7e0ff" opacity="0.55"/><rect x="1150" y="557" width="10" height="12" fill="#e7e0ff" opacity="0.55"/><rect x="1084" y="583" width="10" height="12" fill="#e7e0ff" opacity="0.55"/><rect x="1106" y="583" width="10" height="12" fill="#e7e0ff" opacity="0.55"/><rect x="1128" y="583" width="10" height="12" fill="#e7e0ff" opacity="0.55"/><rect x="1150" y="583" width="10" height="12" fill="#e7e0ff" opacity="0.55"/><rect x="1084" y="609" width="10" height="12" fill="#e7e0ff" opacity="0.55"/><rect x="1128" y="609" width="10" height="12" fill="#e7e0ff" opacity="0.55"/><rect x="1150" y="609" width="10" height="12" fill="#e7e0ff" opacity="0.55"/><rect x="1084" y="635" width="10" height="12" fill="#e7e0ff" opacity="0.55"/><rect x="1128" y="635" width="10" height="12" fill="#e7e0ff" opacity="0.55"/><rect x="1084" y="661" width="10" height="12" fill="#e7e0ff" opacity="0.55"/><rect x="1128" y="661" width="10" height="12" fill="#e7e0ff" opacity="0.55"/><rect x="1150" y="661" width="10" height="12" fill="#e7e0ff" opacity="0.55"/><rect x="1200" y="511" width="93" height="189" fill="#a89bd8"/><rect x="1276" y="529" width="10" height="12" fill="#e7e0ff" opacity="0.55"/><rect x="1232" y="555" width="10" height="12" fill="#e7e0ff" opacity="0.55"/><rect x="1254" y="555" width="10" height="12" fill="#e7e0ff" opacity="0.55"/><rect x="1276" y="555" width="10" height="12" fill="#e7e0ff" opacity="0.55"/><rect x="1210" y="581" width="10" height="12" fill="#e7e0ff" opacity="0.55"/><rect x="1232" y="581" width="10" height="12" fill="#e7e0ff" opacity="0.55"/><rect x="1254" y="581" width="10" height="12" fill="#e7e0ff" opacity="0.55"/><rect x="1210" y="607" width="10" height="12" fill="#e7e0ff" opacity="0.55"/><rect x="1254" y="607" width="10" height="12" fill="#e7e0ff" opacity="0.55"/><rect x="1276" y="607" width="10" height="12" fill="#e7e0ff" opacity="0.55"/><rect x="1210" y="633" width="10" height="12" fill="#e7e0ff" opacity="0.55"/><rect x="1232" y="633" width="10" height="12" fill="#e7e0ff" opacity="0.55"/><rect x="1254" y="633" width="10" height="12" fill="#e7e0ff" opacity="0.55"/><rect x="1276" y="633" width="10" height="12" fill="#e7e0ff" opacity="0.55"/><rect x="1210" y="659" width="10" height="12" fill="#e7e0ff" opacity="0.55"/><rect x="1232" y="659" width="10" height="12" fill="#e7e0ff" opacity="0.55"/><rect x="1254" y="659" width="10" height="12" fill="#e7e0ff" opacity="0.55"/><rect x="1310" y="421" width="104" height="279" fill="#a89bd8"/><rect x="1320" y="439" width="10" height="12" fill="#e7e0ff" opacity="0.55"/><rect x="1342" y="439" width="10" height="12" fill="#e7e0ff" opacity="0.55"/><rect x="1364" y="439" width="10" height="12" fill="#e7e0ff" opacity="0.55"/><rect x="1386" y="439" width="10" height="12" fill="#e7e0ff" opacity="0.55"/><rect x="1320" y="465" width="10" height="12" fill="#e7e0ff" opacity="0.55"/><rect x="1342" y="465" width="10" height="12" fill="#e7e0ff" opacity="0.55"/><rect x="1364" y="465" width="10" height="12" fill="#e7e0ff" opacity="0.55"/><rect x="1386" y="465" width="10" height="12" fill="#e7e0ff" opacity="0.55"/><rect x="1320" y="491" width="10" height="12" fill="#e7e0ff" opacity="0.55"/><rect x="1364" y="491" width="10" height="12" fill="#e7e0ff" opacity="0.55"/><rect x="1386" y="491" width="10" height="12" fill="#e7e0ff" opacity="0.55"/><rect x="1320" y="517" width="10" height="12" fill="#e7e0ff" opacity="0.55"/><rect x="1342" y="517" width="10" height="12" fill="#e7e0ff" opacity="0.55"/><rect x="1364" y="517" width="10" height="12" fill="#e7e0ff" opacity="0.55"/><rect x="1386" y="517" width="10" height="12" fill="#e7e0ff" opacity="0.55"/><rect x="1320" y="543" width="10" height="12" fill="#e7e0ff" opacity="0.55"/><rect x="1364" y="543" width="10" height="12" fill="#e7e0ff" opacity="0.55"/><rect x="1386" y="543" width="10" height="12" fill="#e7e0ff" opacity="0.55"/><rect x="1320" y="569" width="10" height="12" fill="#e7e0ff" opacity="0.55"/><rect x="1364" y="569" width="10" height="12" fill="#e7e0ff" opacity="0.55"/><rect x="1320" y="595" width="10" height="12" fill="#e7e0ff" opacity="0.55"/><rect x="1342" y="595" width="10" height="12" fill="#e7e0ff" opacity="0.55"/><rect x="1386" y="595" width="10" height="12" fill="#e7e0ff" opacity="0.55"/><rect x="1320" y="621" width="10" height="12" fill="#e7e0ff" opacity="0.55"/><rect x="1342" y="621" width="10" height="12" fill="#e7e0ff" opacity="0.55"/><rect x="1386" y="621" width="10" height="12" fill="#e7e0ff" opacity="0.55"/><rect x="1364" y="647" width="10" height="12" fill="#e7e0ff" opacity="0.55"/><rect x="1386" y="647" width="10" height="12" fill="#e7e0ff" opacity="0.55"/><rect x="1320" y="673" width="10" height="12" fill="#e7e0ff" opacity="0.55"/><rect x="1342" y="673" width="10" height="12" fill="#e7e0ff" opacity="0.55"/><rect x="1364" y="673" width="10" height="12" fill="#e7e0ff" opacity="0.55"/><rect x="1386" y="673" width="10" height="12" fill="#e7e0ff" opacity="0.55"/><rect x="1441" y="470" width="102" height="230" fill="#a89bd8"/><rect x="1451" y="488" width="10" height="12" fill="#e7e0ff" opacity="0.55"/><rect x="1473" y="488" width="10" height="12" fill="#e7e0ff" opacity="0.55"/><rect x="1451" y="514" width="10" height="12" fill="#e7e0ff" opacity="0.55"/><rect x="1473" y="514" width="10" height="12" fill="#e7e0ff" opacity="0.55"/><rect x="1495" y="514" width="10" height="12" fill="#e7e0ff" opacity="0.55"/><rect x="1517" y="514" width="10" height="12" fill="#e7e0ff" opacity="0.55"/><rect x="1451" y="540" width="10" height="12" fill="#e7e0ff" opacity="0.55"/><rect x="1473" y="540" width="10" height="12" fill="#e7e0ff" opacity="0.55"/><rect x="1495" y="540" width="10" height="12" fill="#e7e0ff" opacity="0.55"/><rect x="1517" y="540" width="10" height="12" fill="#e7e0ff" opacity="0.55"/><rect x="1495" y="566" width="10" height="12" fill="#e7e0ff" opacity="0.55"/><rect x="1517" y="566" width="10" height="12" fill="#e7e0ff" opacity="0.55"/><rect x="1473" y="592" width="10" height="12" fill="#e7e0ff" opacity="0.55"/><rect x="1495" y="592" width="10" height="12" fill="#e7e0ff" opacity="0.55"/><rect x="1517" y="592" width="10" height="12" fill="#e7e0ff" opacity="0.55"/><rect x="1451" y="618" width="10" height="12" fill="#e7e0ff" opacity="0.55"/><rect x="1473" y="618" width="10" height="12" fill="#e7e0ff" opacity="0.55"/><rect x="1495" y="618" width="10" height="12" fill="#e7e0ff" opacity="0.55"/><rect x="1517" y="618" width="10" height="12" fill="#e7e0ff" opacity="0.55"/><rect x="1451" y="644" width="10" height="12" fill="#e7e0ff" opacity="0.55"/><rect x="1473" y="644" width="10" height="12" fill="#e7e0ff" opacity="0.55"/><rect x="1495" y="644" width="10" height="12" fill="#e7e0ff" opacity="0.55"/><rect x="1517" y="644" width="10" height="12" fill="#e7e0ff" opacity="0.55"/><rect x="1451" y="670" width="10" height="12" fill="#e7e0ff" opacity="0.55"/><rect x="1473" y="670" width="10" height="12" fill="#e7e0ff" opacity="0.55"/><rect x="1495" y="670" width="10" height="12" fill="#e7e0ff" opacity="0.55"/><rect x="1517" y="670" width="10" height="12" fill="#e7e0ff" opacity="0.55"/><rect x="1554" y="431" width="80" height="269" fill="#a89bd8"/><rect x="1608" y="449" width="10" height="12" fill="#e7e0ff" opacity="0.55"/><rect x="1608" y="475" width="10" height="12" fill="#e7e0ff" opacity="0.55"/><rect x="1608" y="501" width="10" height="12" fill="#e7e0ff" opacity="0.55"/><rect x="1564" y="527" width="10" height="12" fill="#e7e0ff" opacity="0.55"/><rect x="1586" y="527" width="10" height="12" fill="#e7e0ff" opacity="0.55"/><rect x="1608" y="527" width="10" height="12" fill="#e7e0ff" opacity="0.55"/><rect x="1608" y="553" width="10" height="12" fill="#e7e0ff" opacity="0.55"/><rect x="1564" y="579" width="10" height="12" fill="#e7e0ff" opacity="0.55"/><rect x="1608" y="579" width="10" height="12" fill="#e7e0ff" opacity="0.55"/><rect x="1608" y="605" width="10" height="12" fill="#e7e0ff" opacity="0.55"/><rect x="1586" y="631" width="10" height="12" fill="#e7e0ff" opacity="0.55"/><rect x="1608" y="631" width="10" height="12" fill="#e7e0ff" opacity="0.55"/><rect x="-20" y="679" width="119" height="81" fill="#9687c9"/><rect x="-10" y="697" width="10" height="12" fill="#fff2c8" opacity="0.6"/><rect x="12" y="697" width="10" height="12" fill="#fff2c8" opacity="0.6"/><rect x="34" y="697" width="10" height="12" fill="#fff2c8" opacity="0.6"/><rect x="56" y="697" width="10" height="12" fill="#fff2c8" opacity="0.6"/><rect x="-10" y="723" width="10" height="12" fill="#fff2c8" opacity="0.6"/><rect x="12" y="723" width="10" height="12" fill="#fff2c8" opacity="0.6"/><rect x="34" y="723" width="10" height="12" fill="#fff2c8" opacity="0.6"/><rect x="56" y="723" width="10" height="12" fill="#fff2c8" opacity="0.6"/><rect x="78" y="723" width="10" height="12" fill="#fff2c8" opacity="0.6"/><rect x="103" y="683" width="148" height="77" fill="#9687c9"/><rect x="135" y="701" width="10" height="12" fill="#fff2c8" opacity="0.6"/><rect x="157" y="701" width="10" height="12" fill="#fff2c8" opacity="0.6"/><rect x="179" y="701" width="10" height="12" fill="#fff2c8" opacity="0.6"/><rect x="201" y="701" width="10" height="12" fill="#fff2c8" opacity="0.6"/><rect x="113" y="727" width="10" height="12" fill="#fff2c8" opacity="0.6"/><rect x="135" y="727" width="10" height="12" fill="#fff2c8" opacity="0.6"/><rect x="157" y="727" width="10" height="12" fill="#fff2c8" opacity="0.6"/><rect x="201" y="727" width="10" height="12" fill="#fff2c8" opacity="0.6"/><rect x="269" y="603" width="153" height="157" fill="#9687c9"/><rect x="279" y="621" width="10" height="12" fill="#fff2c8" opacity="0.6"/><rect x="323" y="621" width="10" height="12" fill="#fff2c8" opacity="0.6"/><rect x="345" y="621" width="10" height="12" fill="#fff2c8" opacity="0.6"/><rect x="367" y="621" width="10" height="12" fill="#fff2c8" opacity="0.6"/><rect x="389" y="621" width="10" height="12" fill="#fff2c8" opacity="0.6"/><rect x="279" y="647" width="10" height="12" fill="#fff2c8" opacity="0.6"/><rect x="301" y="647" width="10" height="12" fill="#fff2c8" opacity="0.6"/><rect x="323" y="647" width="10" height="12" fill="#fff2c8" opacity="0.6"/><rect x="345" y="647" width="10" height="12" fill="#fff2c8" opacity="0.6"/><rect x="367" y="647" width="10" height="12" fill="#fff2c8" opacity="0.6"/><rect x="389" y="647" width="10" height="12" fill="#fff2c8" opacity="0.6"/><rect x="279" y="673" width="10" height="12" fill="#fff2c8" opacity="0.6"/><rect x="301" y="673" width="10" height="12" fill="#fff2c8" opacity="0.6"/><rect x="345" y="673" width="10" height="12" fill="#fff2c8" opacity="0.6"/><rect x="367" y="673" width="10" height="12" fill="#fff2c8" opacity="0.6"/><rect x="389" y="673" width="10" height="12" fill="#fff2c8" opacity="0.6"/><rect x="301" y="699" width="10" height="12" fill="#fff2c8" opacity="0.6"/><rect x="323" y="699" width="10" height="12" fill="#fff2c8" opacity="0.6"/><rect x="389" y="699" width="10" height="12" fill="#fff2c8" opacity="0.6"/><rect x="279" y="725" width="10" height="12" fill="#fff2c8" opacity="0.6"/><rect x="301" y="725" width="10" height="12" fill="#fff2c8" opacity="0.6"/><rect x="323" y="725" width="10" height="12" fill="#fff2c8" opacity="0.6"/><rect x="345" y="725" width="10" height="12" fill="#fff2c8" opacity="0.6"/><rect x="367" y="725" width="10" height="12" fill="#fff2c8" opacity="0.6"/><rect x="389" y="725" width="10" height="12" fill="#fff2c8" opacity="0.6"/><rect x="440" y="601" width="124" height="159" fill="#9687c9"/><rect x="450" y="619" width="10" height="12" fill="#fff2c8" opacity="0.6"/><rect x="494" y="619" width="10" height="12" fill="#fff2c8" opacity="0.6"/><rect x="516" y="619" width="10" height="12" fill="#fff2c8" opacity="0.6"/><rect x="538" y="619" width="10" height="12" fill="#fff2c8" opacity="0.6"/><rect x="450" y="645" width="10" height="12" fill="#fff2c8" opacity="0.6"/><rect x="494" y="645" width="10" height="12" fill="#fff2c8" opacity="0.6"/><rect x="538" y="645" width="10" height="12" fill="#fff2c8" opacity="0.6"/><rect x="494" y="671" width="10" height="12" fill="#fff2c8" opacity="0.6"/><rect x="538" y="671" width="10" height="12" fill="#fff2c8" opacity="0.6"/><rect x="450" y="697" width="10" height="12" fill="#fff2c8" opacity="0.6"/><rect x="472" y="697" width="10" height="12" fill="#fff2c8" opacity="0.6"/><rect x="494" y="697" width="10" height="12" fill="#fff2c8" opacity="0.6"/><rect x="516" y="697" width="10" height="12" fill="#fff2c8" opacity="0.6"/><rect x="538" y="697" width="10" height="12" fill="#fff2c8" opacity="0.6"/><rect x="450" y="723" width="10" height="12" fill="#fff2c8" opacity="0.6"/><rect x="472" y="723" width="10" height="12" fill="#fff2c8" opacity="0.6"/><rect x="494" y="723" width="10" height="12" fill="#fff2c8" opacity="0.6"/><rect x="538" y="723" width="10" height="12" fill="#fff2c8" opacity="0.6"/><rect x="592" y="599" width="133" height="161" fill="#9687c9"/><rect x="602" y="617" width="10" height="12" fill="#fff2c8" opacity="0.6"/><rect x="690" y="617" width="10" height="12" fill="#fff2c8" opacity="0.6"/><rect x="602" y="643" width="10" height="12" fill="#fff2c8" opacity="0.6"/><rect x="624" y="643" width="10" height="12" fill="#fff2c8" opacity="0.6"/><rect x="668" y="643" width="10" height="12" fill="#fff2c8" opacity="0.6"/><rect x="690" y="643" width="10" height="12" fill="#fff2c8" opacity="0.6"/><rect x="602" y="669" width="10" height="12" fill="#fff2c8" opacity="0.6"/><rect x="624" y="669" width="10" height="12" fill="#fff2c8" opacity="0.6"/><rect x="646" y="669" width="10" height="12" fill="#fff2c8" opacity="0.6"/><rect x="668" y="669" width="10" height="12" fill="#fff2c8" opacity="0.6"/><rect x="602" y="695" width="10" height="12" fill="#fff2c8" opacity="0.6"/><rect x="646" y="695" width="10" height="12" fill="#fff2c8" opacity="0.6"/><rect x="668" y="695" width="10" height="12" fill="#fff2c8" opacity="0.6"/><rect x="690" y="695" width="10" height="12" fill="#fff2c8" opacity="0.6"/><rect x="602" y="721" width="10" height="12" fill="#fff2c8" opacity="0.6"/><rect x="624" y="721" width="10" height="12" fill="#fff2c8" opacity="0.6"/><rect x="749" y="559" width="141" height="201" fill="#9687c9"/><rect x="759" y="577" width="10" height="12" fill="#fff2c8" opacity="0.6"/><rect x="803" y="577" width="10" height="12" fill="#fff2c8" opacity="0.6"/><rect x="847" y="577" width="10" height="12" fill="#fff2c8" opacity="0.6"/><rect x="759" y="603" width="10" height="12" fill="#fff2c8" opacity="0.6"/><rect x="781" y="603" width="10" height="12" fill="#fff2c8" opacity="0.6"/><rect x="803" y="603" width="10" height="12" fill="#fff2c8" opacity="0.6"/><rect x="847" y="603" width="10" height="12" fill="#fff2c8" opacity="0.6"/><rect x="869" y="603" width="10" height="12" fill="#fff2c8" opacity="0.6"/><rect x="759" y="629" width="10" height="12" fill="#fff2c8" opacity="0.6"/><rect x="781" y="629" width="10" height="12" fill="#fff2c8" opacity="0.6"/><rect x="847" y="629" width="10" height="12" fill="#fff2c8" opacity="0.6"/><rect x="869" y="629" width="10" height="12" fill="#fff2c8" opacity="0.6"/><rect x="759" y="655" width="10" height="12" fill="#fff2c8" opacity="0.6"/><rect x="781" y="655" width="10" height="12" fill="#fff2c8" opacity="0.6"/><rect x="803" y="655" width="10" height="12" fill="#fff2c8" opacity="0.6"/><rect x="825" y="655" width="10" height="12" fill="#fff2c8" opacity="0.6"/><rect x="847" y="655" width="10" height="12" fill="#fff2c8" opacity="0.6"/><rect x="869" y="655" width="10" height="12" fill="#fff2c8" opacity="0.6"/><rect x="781" y="681" width="10" height="12" fill="#fff2c8" opacity="0.6"/><rect x="803" y="681" width="10" height="12" fill="#fff2c8" opacity="0.6"/><rect x="869" y="681" width="10" height="12" fill="#fff2c8" opacity="0.6"/><rect x="759" y="707" width="10" height="12" fill="#fff2c8" opacity="0.6"/><rect x="781" y="707" width="10" height="12" fill="#fff2c8" opacity="0.6"/><rect x="803" y="707" width="10" height="12" fill="#fff2c8" opacity="0.6"/><rect x="825" y="707" width="10" height="12" fill="#fff2c8" opacity="0.6"/><rect x="847" y="707" width="10" height="12" fill="#fff2c8" opacity="0.6"/><rect x="869" y="707" width="10" height="12" fill="#fff2c8" opacity="0.6"/><rect x="759" y="733" width="10" height="12" fill="#fff2c8" opacity="0.6"/><rect x="781" y="733" width="10" height="12" fill="#fff2c8" opacity="0.6"/><rect x="847" y="733" width="10" height="12" fill="#fff2c8" opacity="0.6"/><rect x="869" y="733" width="10" height="12" fill="#fff2c8" opacity="0.6"/><rect x="910" y="604" width="116" height="156" fill="#9687c9"/><rect x="920" y="622" width="10" height="12" fill="#fff2c8" opacity="0.6"/><rect x="964" y="622" width="10" height="12" fill="#fff2c8" opacity="0.6"/><rect x="986" y="622" width="10" height="12" fill="#fff2c8" opacity="0.6"/><rect x="1008" y="622" width="10" height="12" fill="#fff2c8" opacity="0.6"/><rect x="920" y="648" width="10" height="12" fill="#fff2c8" opacity="0.6"/><rect x="942" y="648" width="10" height="12" fill="#fff2c8" opacity="0.6"/><rect x="1008" y="648" width="10" height="12" fill="#fff2c8" opacity="0.6"/><rect x="942" y="674" width="10" height="12" fill="#fff2c8" opacity="0.6"/><rect x="964" y="674" width="10" height="12" fill="#fff2c8" opacity="0.6"/><rect x="986" y="674" width="10" height="12" fill="#fff2c8" opacity="0.6"/><rect x="1008" y="674" width="10" height="12" fill="#fff2c8" opacity="0.6"/><rect x="964" y="700" width="10" height="12" fill="#fff2c8" opacity="0.6"/><rect x="986" y="700" width="10" height="12" fill="#fff2c8" opacity="0.6"/><rect x="964" y="726" width="10" height="12" fill="#fff2c8" opacity="0.6"/><rect x="986" y="726" width="10" height="12" fill="#fff2c8" opacity="0.6"/><rect x="1056" y="581" width="157" height="179" fill="#9687c9"/><rect x="1088" y="599" width="10" height="12" fill="#fff2c8" opacity="0.6"/><rect x="1110" y="599" width="10" height="12" fill="#fff2c8" opacity="0.6"/><rect x="1132" y="599" width="10" height="12" fill="#fff2c8" opacity="0.6"/><rect x="1154" y="599" width="10" height="12" fill="#fff2c8" opacity="0.6"/><rect x="1176" y="599" width="10" height="12" fill="#fff2c8" opacity="0.6"/><rect x="1110" y="625" width="10" height="12" fill="#fff2c8" opacity="0.6"/><rect x="1154" y="625" width="10" height="12" fill="#fff2c8" opacity="0.6"/><rect x="1176" y="625" width="10" height="12" fill="#fff2c8" opacity="0.6"/><rect x="1066" y="651" width="10" height="12" fill="#fff2c8" opacity="0.6"/><rect x="1110" y="651" width="10" height="12" fill="#fff2c8" opacity="0.6"/><rect x="1154" y="651" width="10" height="12" fill="#fff2c8" opacity="0.6"/><rect x="1176" y="651" width="10" height="12" fill="#fff2c8" opacity="0.6"/><rect x="1066" y="677" width="10" height="12" fill="#fff2c8" opacity="0.6"/><rect x="1088" y="677" width="10" height="12" fill="#fff2c8" opacity="0.6"/><rect x="1110" y="677" width="10" height="12" fill="#fff2c8" opacity="0.6"/><rect x="1132" y="677" width="10" height="12" fill="#fff2c8" opacity="0.6"/><rect x="1154" y="677" width="10" height="12" fill="#fff2c8" opacity="0.6"/><rect x="1176" y="677" width="10" height="12" fill="#fff2c8" opacity="0.6"/><rect x="1066" y="703" width="10" height="12" fill="#fff2c8" opacity="0.6"/><rect x="1088" y="703" width="10" height="12" fill="#fff2c8" opacity="0.6"/><rect x="1110" y="703" width="10" height="12" fill="#fff2c8" opacity="0.6"/><rect x="1132" y="703" width="10" height="12" fill="#fff2c8" opacity="0.6"/><rect x="1154" y="703" width="10" height="12" fill="#fff2c8" opacity="0.6"/><rect x="1176" y="703" width="10" height="12" fill="#fff2c8" opacity="0.6"/><rect x="1066" y="729" width="10" height="12" fill="#fff2c8" opacity="0.6"/><rect x="1088" y="729" width="10" height="12" fill="#fff2c8" opacity="0.6"/><rect x="1132" y="729" width="10" height="12" fill="#fff2c8" opacity="0.6"/><rect x="1176" y="729" width="10" height="12" fill="#fff2c8" opacity="0.6"/><rect x="1224" y="637" width="160" height="123" fill="#9687c9"/><rect x="1234" y="655" width="10" height="12" fill="#fff2c8" opacity="0.6"/><rect x="1256" y="655" width="10" height="12" fill="#fff2c8" opacity="0.6"/><rect x="1278" y="655" width="10" height="12" fill="#fff2c8" opacity="0.6"/><rect x="1300" y="655" width="10" height="12" fill="#fff2c8" opacity="0.6"/><rect x="1322" y="655" width="10" height="12" fill="#fff2c8" opacity="0.6"/><rect x="1366" y="655" width="10" height="12" fill="#fff2c8" opacity="0.6"/><rect x="1234" y="681" width="10" height="12" fill="#fff2c8" opacity="0.6"/><rect x="1256" y="681" width="10" height="12" fill="#fff2c8" opacity="0.6"/><rect x="1278" y="681" width="10" height="12" fill="#fff2c8" opacity="0.6"/><rect x="1300" y="681" width="10" height="12" fill="#fff2c8" opacity="0.6"/><rect x="1322" y="681" width="10" height="12" fill="#fff2c8" opacity="0.6"/><rect x="1344" y="681" width="10" height="12" fill="#fff2c8" opacity="0.6"/><rect x="1234" y="707" width="10" height="12" fill="#fff2c8" opacity="0.6"/><rect x="1256" y="707" width="10" height="12" fill="#fff2c8" opacity="0.6"/><rect x="1278" y="707" width="10" height="12" fill="#fff2c8" opacity="0.6"/><rect x="1300" y="707" width="10" height="12" fill="#fff2c8" opacity="0.6"/><rect x="1344" y="707" width="10" height="12" fill="#fff2c8" opacity="0.6"/><rect x="1366" y="707" width="10" height="12" fill="#fff2c8" opacity="0.6"/><rect x="1234" y="733" width="10" height="12" fill="#fff2c8" opacity="0.6"/><rect x="1278" y="733" width="10" height="12" fill="#fff2c8" opacity="0.6"/><rect x="1300" y="733" width="10" height="12" fill="#fff2c8" opacity="0.6"/><rect x="1322" y="733" width="10" height="12" fill="#fff2c8" opacity="0.6"/><rect x="1366" y="733" width="10" height="12" fill="#fff2c8" opacity="0.6"/><rect x="1407" y="544" width="153" height="216" fill="#9687c9"/><rect x="1417" y="562" width="10" height="12" fill="#fff2c8" opacity="0.6"/><rect x="1439" y="562" width="10" height="12" fill="#fff2c8" opacity="0.6"/><rect x="1461" y="562" width="10" height="12" fill="#fff2c8" opacity="0.6"/><rect x="1483" y="562" width="10" height="12" fill="#fff2c8" opacity="0.6"/><rect x="1527" y="562" width="10" height="12" fill="#fff2c8" opacity="0.6"/><rect x="1417" y="588" width="10" height="12" fill="#fff2c8" opacity="0.6"/><rect x="1439" y="588" width="10" height="12" fill="#fff2c8" opacity="0.6"/><rect x="1483" y="588" width="10" height="12" fill="#fff2c8" opacity="0.6"/><rect x="1505" y="588" width="10" height="12" fill="#fff2c8" opacity="0.6"/><rect x="1527" y="588" width="10" height="12" fill="#fff2c8" opacity="0.6"/><rect x="1417" y="614" width="10" height="12" fill="#fff2c8" opacity="0.6"/><rect x="1417" y="640" width="10" height="12" fill="#fff2c8" opacity="0.6"/><rect x="1439" y="640" width="10" height="12" fill="#fff2c8" opacity="0.6"/><rect x="1505" y="640" width="10" height="12" fill="#fff2c8" opacity="0.6"/><rect x="1527" y="640" width="10" height="12" fill="#fff2c8" opacity="0.6"/><rect x="1417" y="666" width="10" height="12" fill="#fff2c8" opacity="0.6"/><rect x="1439" y="666" width="10" height="12" fill="#fff2c8" opacity="0.6"/><rect x="1461" y="666" width="10" height="12" fill="#fff2c8" opacity="0.6"/><rect x="1483" y="666" width="10" height="12" fill="#fff2c8" opacity="0.6"/><rect x="1505" y="666" width="10" height="12" fill="#fff2c8" opacity="0.6"/><rect x="1527" y="666" width="10" height="12" fill="#fff2c8" opacity="0.6"/><rect x="1417" y="692" width="10" height="12" fill="#fff2c8" opacity="0.6"/><rect x="1461" y="692" width="10" height="12" fill="#fff2c8" opacity="0.6"/><rect x="1505" y="692" width="10" height="12" fill="#fff2c8" opacity="0.6"/><rect x="1527" y="692" width="10" height="12" fill="#fff2c8" opacity="0.6"/><rect x="1461" y="718" width="10" height="12" fill="#fff2c8" opacity="0.6"/><rect x="1483" y="718" width="10" height="12" fill="#fff2c8" opacity="0.6"/><rect x="1505" y="718" width="10" height="12" fill="#fff2c8" opacity="0.6"/><rect x="1527" y="718" width="10" height="12" fill="#fff2c8" opacity="0.6"/><rect x="1578" y="618" width="114" height="142" fill="#9687c9"/><rect x="1588" y="636" width="10" height="12" fill="#fff2c8" opacity="0.6"/><rect x="1632" y="636" width="10" height="12" fill="#fff2c8" opacity="0.6"/><rect x="1654" y="636" width="10" height="12" fill="#fff2c8" opacity="0.6"/><rect x="1632" y="662" width="10" height="12" fill="#fff2c8" opacity="0.6"/><rect x="1654" y="662" width="10" height="12" fill="#fff2c8" opacity="0.6"/><rect x="1588" y="688" width="10" height="12" fill="#fff2c8" opacity="0.6"/><rect x="1632" y="688" width="10" height="12" fill="#fff2c8" opacity="0.6"/><rect x="1610" y="714" width="10" height="12" fill="#fff2c8" opacity="0.6"/><rect x="1632" y="714" width="10" height="12" fill="#fff2c8" opacity="0.6"/><rect y="740" width="1600" height="160" fill="#e3a8c2"/><rect y="740" width="1600" height="14" fill="#c98fb4"/><circle cx="89" cy="730" r="30" fill="#8fbfb0" opacity=".85"/><circle cx="1528" cy="729" r="32" fill="#8fbfb0" opacity=".85"/><circle cx="564" cy="730" r="31" fill="#8fbfb0" opacity=".85"/><circle cx="7" cy="725" r="41" fill="#8fbfb0" opacity=".85"/><circle cx="1298" cy="733" r="24" fill="#8fbfb0" opacity=".85"/><circle cx="49" cy="731" r="29" fill="#8fbfb0" opacity=".85"/><circle cx="219" cy="727" r="37" fill="#8fbfb0" opacity=".85"/><circle cx="1465" cy="727" r="36" fill="#8fbfb0" opacity=".85"/><circle cx="1589" cy="728" r="34" fill="#8fbfb0" opacity=".85"/><circle cx="514" cy="728" r="35" fill="#8fbfb0" opacity=".85"/><circle cx="1010" cy="732" r="26" fill="#8fbfb0" opacity=".85"/><circle cx="1016" cy="732" r="27" fill="#8fbfb0" opacity=".85"/><circle cx="17" cy="730" r="31" fill="#8fbfb0" opacity=".85"/><circle cx="1417" cy="732" r="26" fill="#8fbfb0" opacity=".85"/><circle cx="1243" cy="731" r="29" fill="#8fbfb0" opacity=".85"/><circle cx="671" cy="729" r="32" fill="#8fbfb0" opacity=".85"/><circle cx="943" cy="729" r="33" fill="#8fbfb0" opacity=".85"/><circle cx="1220" cy="733" r="24" fill="#8fbfb0" opacity=".85"/><circle cx="1048" cy="731" r="28" fill="#8fbfb0" opacity=".85"/><circle cx="802" cy="732" r="27" fill="#8fbfb0" opacity=".85"/><circle cx="506" cy="728" r="35" fill="#8fbfb0" opacity=".85"/><circle cx="132" cy="724" r="42" fill="#8fbfb0" opacity=".85"/><circle cx="69" cy="727" r="37" fill="#8fbfb0" opacity=".85"/><circle cx="1131" cy="726" r="39" fill="#8fbfb0" opacity=".85"/><circle cx="667" cy="732" r="27" fill="#8fbfb0" opacity=".85"/><circle cx="873" cy="733" r="25" fill="#8fbfb0" opacity=".85"/><path d="M40 900 L160 760 L200 760 L120 900Z" fill="#f2c3d6" opacity=".6"/><path d="M340 900 L460 760 L500 760 L420 900Z" fill="#f2c3d6" opacity=".6"/><path d="M640 900 L760 760 L800 760 L720 900Z" fill="#f2c3d6" opacity=".6"/><path d="M940 900 L1060 760 L1100 760 L1020 900Z" fill="#f2c3d6" opacity=".6"/><path d="M1240 900 L1360 760 L1400 760 L1320 900Z" fill="#f2c3d6" opacity=".6"/><path d="M1540 900 L1660 760 L1700 760 L1620 900Z" fill="#f2c3d6" opacity=".6"/></svg>
